<svg xmlns="http://www.w3.org/2000/svg" width="18" height="20" fill="none">
  <g clip-path="url(#a)">
    <path fill="#1d2e5b"
      d="M4.498 13.571q0-.59-.44-1.01A1.48 1.48 0 0 0 3 12.143q-.62 0-1.059.418a1.35 1.35 0 0 0-.439 1.01q0 .593.439 1.01A1.48 1.48 0 0 0 3 15q.62 0 1.059-.418.439-.42.439-1.01m11.985 0q0-.59-.439-1.01a1.48 1.48 0 0 0-1.059-.418q-.62 0-1.06.418a1.35 1.35 0 0 0-.438 1.01q0 .593.439 1.01a1.48 1.48 0 0 0 1.06.419q.62 0 1.058-.418.44-.42.44-1.01m-.538-4.42-.843-4.285a.743.743 0 0 0-.737-.58H3.62a.74.74 0 0 0-.738.58L2.04 9.152a.68.68 0 0 0 .164.591q.223.257.574.257h12.43a.72.72 0 0 0 .574-.257.68.68 0 0 0 .164-.591M13.3 2.322a.5.5 0 0 0-.164-.379.56.56 0 0 0-.398-.156H5.247a.56.56 0 0 0-.398.156.5.5 0 0 0-.164.38q0 .222.164.379.164.156.398.156h7.49a.56.56 0 0 0 .399-.156.5.5 0 0 0 .164-.38m4.682 8.092v6.73h-1.498v1.428q0 .592-.44 1.01a1.48 1.48 0 0 1-1.059.419 1.48 1.48 0 0 1-1.06-.419 1.35 1.35 0 0 1-.438-1.01v-1.428h-8.99v1.428q0 .592-.438 1.01a1.48 1.48 0 0 1-1.06.419 1.48 1.48 0 0 1-1.059-.419 1.35 1.35 0 0 1-.439-1.01v-1.428H.003v-6.73q0-1.25.292-2.489l1.206-5.067q.105-.87 1.141-1.529Q3.677.67 5.334.335 6.991 0 8.992 0t3.658.335q1.656.335 2.692.993 1.035.66 1.141 1.53l1.23 5.066q.269 1.139.269 2.489" />
  </g>
  <defs>
    <clipPath id="a">
      <path fill="#fff" d="M0 0h17.986v20H0z" />
    </clipPath>
  </defs>
</svg>