<svg xmlns="http://www.w3.org/2000/svg" width="22" height="24" fill="none">
  <path fill="#1d2e5b"
    d="M15.443 6c1.003 0 1.817-.895 1.817-2s-.814-2-1.817-2-1.817.895-1.817 2 .813 2 1.817 2M14.332 10.969c.208.342.507.605.857.754.349.148.73.175 1.094.076l3.012-.829-.438-1.94-3.013.829-1.252-2.067a1.83 1.83 0 0 0-1.156-.854l-3.494-.77a1.67 1.67 0 0 0-1.154.164c-.358.193-.649.51-.827.903l-1.506 3.316 1.625.895 1.506-3.317 1.787.394L6.753 17H2.725v2h4.028c.634 0 1.231-.372 1.558-.971l1.742-3.196 4.696 1.034 1.65 5.449 1.722-.633-1.649-5.448a2.03 2.03 0 0 0-.522-.867 1.77 1.77 0 0 0-.846-.463l-2.76-.607 1.61-2.954z" />
</svg>