<svg xmlns="http://www.w3.org/2000/svg" width="21" height="18" fill="none">
  <path fill="#192144" fill-rule="evenodd"
    d="m10.015 6.874 1.119-2.348c.278-.582.76-1.418 1.442-2.095.67-.665 1.474-1.118 2.446-1.118 2.098 0 3.755 1.74 3.755 3.834 0 1.59-.693 2.712-2.338 4.424-.422.439-.903.912-1.435 1.435-1.387 1.365-3.112 3.064-4.99 5.336-1.877-2.272-3.602-3.97-4.99-5.336A74 74 0 0 1 3.59 9.571C1.945 7.86 1.252 6.737 1.252 5.147c0-2.093 1.657-3.834 3.755-3.834.972 0 1.775.453 2.446 1.118.683.677 1.165 1.513 1.442 2.095zm.49 10.887a.65.65 0 0 1-.22.176.62.62 0 0 1-.761-.176c-2.004-2.497-3.818-4.283-5.312-5.752C1.627 9.463 0 7.863 0 5.147 0 2.304 2.24 0 5.007 0 7.01 0 8.411 1.379 9.268 2.636c.326.48.574.94.747 1.303q.324-.682.746-1.303C11.618 1.377 13.019 0 15.02 0c2.767 0 5.008 2.304 5.008 5.147 0 2.716-1.627 4.316-4.212 6.862-1.494 1.47-3.308 3.256-5.312 5.75z"
    clip-rule="evenodd" />
</svg>