<svg xmlns="http://www.w3.org/2000/svg" width="22" height="22" fill="none">
  <g clip-path="url(#a)">
    <path fill="#1d2e5b"
      d="M17.716 1.183c-.769.18-1.542.362-1.829.858l-2.223 4.373-11.944 2.8-.483 1.398 9.14.854-1.55 3.786-3.467.812-.87 1.488 2.5.268.286 1.217c.128.432.576.72.959.63l1.155-.27 1.34 2.253.87-1.488-.856-3.65 2.509-3.157 4.79 8.293.965-1.08L16.059 7.99l2.706-4.056c.29-.498.1-1.308-.09-2.122-.095-.403-.576-.72-.959-.63" />
  </g>
  <defs>
    <clipPath id="a">
      <path fill="#fff" d="M0 0h21.983v22H0z" />
    </clipPath>
  </defs>
</svg>