<svg xmlns="http://www.w3.org/2000/svg" width="25" height="25" fill="none">
  <path fill="#1d2e5b"
    d="M18.93 21.875a4.49 4.49 0 0 1-4.146-2.773 4.496 4.496 0 0 1 3.271-6.125 4.49 4.49 0 0 1 4.608 1.91 4.494 4.494 0 0 1-3.732 6.988m0-7.422a2.925 2.925 0 0 0-2.704 1.809 2.932 2.932 0 0 0 2.134 3.994 2.926 2.926 0 0 0 3.498-2.873 2.934 2.934 0 0 0-2.927-2.93M6.05 21.875a4.49 4.49 0 0 1-4.147-2.773 4.495 4.495 0 0 1 3.271-6.125 4.49 4.49 0 0 1 4.608 1.91 4.494 4.494 0 0 1-3.732 6.988m0-7.422a2.925 2.925 0 0 0-2.705 1.809 2.932 2.932 0 0 0 2.134 3.994 2.926 2.926 0 0 0 3.499-2.873 2.934 2.934 0 0 0-2.928-2.93M15.613 6.25a1.555 1.555 0 0 0 1.561-1.567 1.54 1.54 0 0 0-1.551-1.558 1.56 1.56 0 0 0-1.45 2.156 1.56 1.56 0 0 0 1.44.969" />
  <path fill="#1d2e5b"
    d="M17.933 9.375h-2.135a.2.2 0 0 1-.171-.101l-1.549-2.84a1.515 1.515 0 0 0-1.81-.745 1.5 1.5 0 0 0-.6.366L8.26 9.492a1.6 1.6 0 0 0-.453 1.094c0 .85.614 1.152.902 1.323 1.39.802 2.37 1.388 2.907 1.714a.2.2 0 0 1 .094.167v3.375c0 .42.323.78.743.802a.78.78 0 0 0 .818-.78v-4.199a.78.78 0 0 0-.325-.634l-1.805-1.3a.195.195 0 0 1-.028-.293l2.049-2.187a.195.195 0 0 1 .313.039l1.065 1.923a.78.78 0 0 0 .683.402h2.732a.78.78 0 0 0 .78-.82.797.797 0 0 0-.802-.743" />
</svg>