<svg xmlns="http://www.w3.org/2000/svg">
    <symbol id="icon-plane" xmlns="http://www.w3.org/2000/svg" viewBox="0 0 22 22" fill="none">
        <path fill="CurrentColor"
            d="M17.716 1.183c-.769.18-1.542.362-1.829.858l-2.223 4.373-11.944 2.8-.483 1.398 9.14.854-1.55 3.786-3.467.812-.87 1.488 2.5.268.286 1.217c.128.432.576.72.959.63l1.155-.27 1.34 2.253.87-1.488-.856-3.65 2.509-3.157 4.79 8.293.965-1.08L16.059 7.99l2.706-4.056c.29-.498.1-1.308-.09-2.122-.095-.403-.576-.72-.959-.63" />
    </symbol>

    <symbol id="icon-bus" xmlns="http://www.w3.org/2000/svg" viewBox="0 0 18 20" fill="none">
        <path fill="CurrentColor"
            d="M4.498 13.571q0-.59-.44-1.01A1.48 1.48 0 0 0 3 12.143q-.62 0-1.059.418a1.35 1.35 0 0 0-.439 1.01q0 .593.439 1.01A1.48 1.48 0 0 0 3 15q.62 0 1.059-.418.439-.42.439-1.01m11.985 0q0-.59-.439-1.01a1.48 1.48 0 0 0-1.059-.418q-.62 0-1.06.418a1.35 1.35 0 0 0-.438 1.01q0 .593.439 1.01a1.48 1.48 0 0 0 1.06.419q.62 0 1.058-.418.44-.42.44-1.01m-.538-4.42-.843-4.285a.743.743 0 0 0-.737-.58H3.62a.74.74 0 0 0-.738.58L2.04 9.152a.68.68 0 0 0 .164.591q.223.257.574.257h12.43a.72.72 0 0 0 .574-.257.68.68 0 0 0 .164-.591M13.3 2.322a.5.5 0 0 0-.164-.379.56.56 0 0 0-.398-.156H5.247a.56.56 0 0 0-.398.156.5.5 0 0 0-.164.38q0 .222.164.379.164.156.398.156h7.49a.56.56 0 0 0 .399-.156.5.5 0 0 0 .164-.38m4.682 8.092v6.73h-1.498v1.428q0 .592-.44 1.01a1.48 1.48 0 0 1-1.059.419 1.48 1.48 0 0 1-1.06-.419 1.35 1.35 0 0 1-.438-1.01v-1.428h-8.99v1.428q0 .592-.438 1.01a1.48 1.48 0 0 1-1.06.419 1.48 1.48 0 0 1-1.059-.419 1.35 1.35 0 0 1-.439-1.01v-1.428H.003v-6.73q0-1.25.292-2.489l1.206-5.067q.105-.87 1.141-1.529Q3.677.67 5.334.335 6.991 0 8.992 0t3.658.335q1.656.335 2.692.993 1.035.66 1.141 1.53l1.23 5.066q.269 1.139.269 2.489" />
    </symbol>

    <symbol id="icon_bicycle" xmlns="http://www.w3.org/2000/svg" viewBox="0 0 25 25" fill="none">
        <path fill="CurrentColor"
            d="M18.93 21.875a4.49 4.49 0 0 1-4.146-2.773 4.496 4.496 0 0 1 3.271-6.125 4.49 4.49 0 0 1 4.608 1.91 4.494 4.494 0 0 1-3.732 6.988m0-7.422a2.925 2.925 0 0 0-2.704 1.809 2.932 2.932 0 0 0 2.134 3.994 2.926 2.926 0 0 0 3.498-2.873 2.934 2.934 0 0 0-2.927-2.93M6.05 21.875a4.49 4.49 0 0 1-4.147-2.773 4.495 4.495 0 0 1 3.271-6.125 4.49 4.49 0 0 1 4.608 1.91 4.494 4.494 0 0 1-3.732 6.988m0-7.422a2.925 2.925 0 0 0-2.705 1.809 2.932 2.932 0 0 0 2.134 3.994 2.926 2.926 0 0 0 3.499-2.873 2.934 2.934 0 0 0-2.928-2.93M15.613 6.25a1.555 1.555 0 0 0 1.561-1.567 1.54 1.54 0 0 0-1.551-1.558 1.56 1.56 0 0 0-1.45 2.156 1.56 1.56 0 0 0 1.44.969" />
        <path fill="CurrentColor"
            d="M17.933 9.375h-2.135a.2.2 0 0 1-.171-.101l-1.549-2.84a1.515 1.515 0 0 0-1.81-.745 1.5 1.5 0 0 0-.6.366L8.26 9.492a1.6 1.6 0 0 0-.453 1.094c0 .85.614 1.152.902 1.323 1.39.802 2.37 1.388 2.907 1.714a.2.2 0 0 1 .094.167v3.375c0 .42.323.78.743.802a.78.78 0 0 0 .818-.78v-4.199a.78.78 0 0 0-.325-.634l-1.805-1.3a.195.195 0 0 1-.028-.293l2.049-2.187a.195.195 0 0 1 .313.039l1.065 1.923a.78.78 0 0 0 .683.402h2.732a.78.78 0 0 0 .78-.82.797.797 0 0 0-.802-.743" />
    </symbol>

    <symbol id="icon_walk" xmlns="http://www.w3.org/2000/svg" viewBox="0 0 22 24" fill="none">
        <path fill="CurrentColor"
            d="M15.443 6c1.003 0 1.817-.895 1.817-2s-.814-2-1.817-2-1.817.895-1.817 2 .813 2 1.817 2M14.332 10.969c.208.342.507.605.857.754.349.148.73.175 1.094.076l3.012-.829-.438-1.94-3.013.829-1.252-2.067a1.83 1.83 0 0 0-1.156-.854l-3.494-.77a1.67 1.67 0 0 0-1.154.164c-.358.193-.649.51-.827.903l-1.506 3.316 1.625.895 1.506-3.317 1.787.394L6.753 17H2.725v2h4.028c.634 0 1.231-.372 1.558-.971l1.742-3.196 4.696 1.034 1.65 5.449 1.722-.633-1.649-5.448a2.03 2.03 0 0 0-.522-.867 1.77 1.77 0 0 0-.846-.463l-2.76-.607 1.61-2.954z" />
    </symbol>

    <symbol id="icon-arrow" xmlns="http://www.w3.org/2000/svg" viewBox="0 0 9 5" fill="none">
        <path fill="#192144" d="M4.327 4.5 0 0h8.654z" />
    </symbol>

    <symbol id="icon-like" xmlns="http://www.w3.org/2000/svg" viewBox="0 0 20 20" fill="none">
        <path fill="#192144" fill-rule="evenodd"
            d="m9.992 8.124 1.117-2.348c.277-.582.758-1.418 1.439-2.095.67-.665 1.471-1.118 2.44-1.118 2.094 0 3.748 1.74 3.748 3.834 0 1.59-.692 2.712-2.333 4.424-.421.439-.901.912-1.432 1.435-1.384 1.365-3.105 3.064-4.979 5.336-1.873-2.272-3.594-3.97-4.978-5.336a74 74 0 0 1-1.432-1.435C1.941 9.11 1.25 7.987 1.25 6.397c0-2.093 1.654-3.834 3.747-3.834.97 0 1.771.453 2.44 1.118.682.677 1.162 1.513 1.44 2.095zm.49 10.887a.65.65 0 0 1-.22.176.615.615 0 0 1-.76-.176c-1.999-2.497-3.809-4.283-5.299-5.752C1.623 10.713 0 9.113 0 6.397 0 3.554 2.236 1.25 4.996 1.25c1.999 0 3.396 1.379 4.252 2.636.325.48.572.94.744 1.303q.324-.682.745-1.303c.855-1.259 2.253-2.636 4.252-2.636 2.76 0 4.996 2.304 4.996 5.147 0 2.716-1.624 4.316-4.203 6.862-1.49 1.47-3.3 3.256-5.3 5.75z"
            clip-rule="evenodd" opacity=".5" />
    </symbol>
</svg>